<svg width="154" height="24" viewBox="0 0 154 24" fill="none" xmlns="http://www.w3.org/2000/svg">
<path d="M9.48817 23.4149C7.66558 23.4149 5.8966 23.1897 4.18123 22.7394C2.46585 22.2891 1.07211 21.6888 0 20.9383L2.09061 16.2425C3.09839 16.9072 4.26699 17.4432 5.59641 17.8506C6.92582 18.258 8.2338 18.4617 9.52033 18.4617C11.9647 18.4617 13.1869 17.8506 13.1869 16.6284C13.1869 15.9851 12.8331 15.5134 12.1256 15.2132C11.4394 14.8916 10.3244 14.5592 8.78057 14.2162C7.08664 13.8517 5.67146 13.4657 4.53502 13.0583C3.39859 12.6294 2.42297 11.954 1.60816 11.032C0.793361 10.11 0.385959 8.86634 0.385959 7.30106C0.385959 5.92876 0.761197 4.69584 1.51167 3.60229C2.26215 2.48729 3.37714 1.60816 4.85665 0.964899C6.35761 0.321633 8.19091 0 10.3566 0C11.8361 0 13.2942 0.171538 14.7308 0.514613C16.1674 0.836246 17.4325 1.31869 18.526 1.96196L16.5641 6.68996C14.4199 5.53208 12.34 4.95315 10.3244 4.95315C9.05932 4.95315 8.13731 5.14612 7.55837 5.53208C6.97943 5.8966 6.68996 6.37905 6.68996 6.97943C6.68996 7.57981 7.03304 8.0301 7.71919 8.33029C8.40534 8.63048 9.50961 8.94139 11.032 9.26302C12.7474 9.62754 14.1626 10.0242 15.2776 10.4531C16.414 10.8605 17.3896 11.5252 18.2044 12.4472C19.0407 13.3478 19.4588 14.5807 19.4588 16.146C19.4588 17.4968 19.0835 18.719 18.3331 19.8126C17.5826 20.9061 16.4569 21.7853 14.9559 22.45C13.455 23.0932 11.6324 23.4149 9.48817 23.4149Z" fill="#1F1F1F"/>
<path d="M43.8212 0.450286V22.9646H37.4529V14.184H28.7688V22.9646H22.4005V0.450286H28.7688V8.90923H37.4529V0.450286H43.8212Z" fill="#1F1F1F"/>
<path d="M59.6669 23.4149C57.2868 23.4149 55.1426 22.911 53.2342 21.9032C51.3473 20.8954 49.8571 19.5017 48.7635 17.722C47.6914 15.9423 47.1554 13.9374 47.1554 11.7074C47.1554 9.47744 47.6914 7.4726 48.7635 5.6929C49.8571 3.9132 51.3473 2.51946 53.2342 1.51167C55.1426 0.503891 57.2868 0 59.6669 0C62.047 0 64.1805 0.503891 66.0674 1.51167C67.9757 2.51946 69.466 3.9132 70.5381 5.6929C71.6316 7.4726 72.1784 9.47744 72.1784 11.7074C72.1784 13.9374 71.6316 15.9423 70.5381 17.722C69.466 19.5017 67.9757 20.8954 66.0674 21.9032C64.1805 22.911 62.047 23.4149 59.6669 23.4149ZM59.6669 18.1401C60.8033 18.1401 61.8325 17.8721 62.7546 17.336C63.6766 16.8 64.4056 16.0495 64.9417 15.0846C65.4777 14.0982 65.7457 12.9725 65.7457 11.7074C65.7457 10.4423 65.4777 9.32735 64.9417 8.36245C64.4056 7.37611 63.6766 6.61491 62.7546 6.07886C61.8325 5.5428 60.8033 5.27478 59.6669 5.27478C58.5304 5.27478 57.5012 5.5428 56.5792 6.07886C55.6572 6.61491 54.9282 7.37611 54.3921 8.36245C53.8561 9.32735 53.588 10.4423 53.588 11.7074C53.588 12.9725 53.8561 14.0982 54.3921 15.0846C54.9282 16.0495 55.6572 16.8 56.5792 17.336C57.5012 17.8721 58.5304 18.1401 59.6669 18.1401Z" fill="#1F1F1F"/>
<path d="M85.8061 0.450286C87.8431 0.450286 89.6121 0.793361 91.113 1.47951C92.614 2.14422 93.7718 3.10912 94.5867 4.37421C95.4015 5.61785 95.8089 7.08664 95.8089 8.78057C95.8089 10.4745 95.4015 11.9433 94.5867 13.1869C93.7718 14.4306 92.614 15.3955 91.113 16.0816C89.6121 16.7463 87.8431 17.0787 85.8061 17.0787H81.8822V22.9646H75.5138V0.450286H85.8061ZM85.4201 12.0612C86.7281 12.0612 87.7144 11.7825 88.3791 11.225C89.0439 10.646 89.3762 9.83124 89.3762 8.78057C89.3762 7.72991 89.0439 6.9151 88.3791 6.33617C87.7144 5.75723 86.7281 5.46776 85.4201 5.46776H81.8822V12.0612H85.4201Z" fill="#1F1F1F"/>
<path d="M100.663 23.254C99.6343 23.254 98.7659 22.911 98.0583 22.2248C97.3507 21.5387 96.9969 20.6703 96.9969 19.6196C96.9969 18.5475 97.34 17.6791 98.0261 17.0144C98.7337 16.3497 99.6128 16.0173 100.663 16.0173C101.736 16.0173 102.615 16.3497 103.301 17.0144C103.987 17.6791 104.33 18.5475 104.33 19.6196C104.33 20.6703 103.976 21.5387 103.269 22.2248C102.583 22.911 101.714 23.254 100.663 23.254Z" fill="#1F1F1F"/>
<path d="M118.085 23.4149C115.727 23.4149 113.604 22.9217 111.717 21.9354C109.852 20.9276 108.383 19.5338 107.311 17.7541C106.239 15.9744 105.703 13.9589 105.703 11.7074C105.703 9.456 106.239 7.44044 107.311 5.66074C108.383 3.88103 109.852 2.49801 111.717 1.51167C113.604 0.503891 115.727 0 118.085 0C120.144 0 121.999 0.364517 123.65 1.09355C125.301 1.82259 126.673 2.87325 127.767 4.24555L123.714 7.91217C122.256 6.15391 120.487 5.27478 118.407 5.27478C117.185 5.27478 116.091 5.5428 115.126 6.07886C114.183 6.61491 113.443 7.37611 112.907 8.36245C112.393 9.32735 112.135 10.4423 112.135 11.7074C112.135 12.9725 112.393 14.0982 112.907 15.0846C113.443 16.0495 114.183 16.8 115.126 17.336C116.091 17.8721 117.185 18.1401 118.407 18.1401C120.487 18.1401 122.256 17.261 123.714 15.5027L127.767 19.1693C126.673 20.5416 125.301 21.5923 123.65 22.3213C121.999 23.0503 120.144 23.4149 118.085 23.4149Z" fill="#0072CE"/>
<path d="M141.488 23.4149C139.108 23.4149 136.964 22.911 135.056 21.9032C133.169 20.8954 131.679 19.5017 130.585 17.722C129.513 15.9423 128.977 13.9374 128.977 11.7074C128.977 9.47744 129.513 7.4726 130.585 5.6929C131.679 3.9132 133.169 2.51946 135.056 1.51167C136.964 0.503891 139.108 0 141.488 0C143.869 0 146.002 0.503891 147.889 1.51167C149.797 2.51946 151.288 3.9132 152.36 5.6929C153.453 7.4726 154 9.47744 154 11.7074C154 13.9374 153.453 15.9423 152.36 17.722C151.288 19.5017 149.797 20.8954 147.889 21.9032C146.002 22.911 143.869 23.4149 141.488 23.4149ZM141.488 18.1401C142.625 18.1401 143.654 17.8721 144.576 17.336C145.498 16.8 146.227 16.0495 146.763 15.0846C147.299 14.0982 147.567 12.9725 147.567 11.7074C147.567 10.4423 147.299 9.32735 146.763 8.36245C146.227 7.37611 145.498 6.61491 144.576 6.07886C143.654 5.5428 142.625 5.27478 141.488 5.27478C140.352 5.27478 139.323 5.5428 138.401 6.07886C137.479 6.61491 136.75 7.37611 136.214 8.36245C135.678 9.32735 135.41 10.4423 135.41 11.7074C135.41 12.9725 135.678 14.0982 136.214 15.0846C136.75 16.0495 137.479 16.8 138.401 17.336C139.323 17.8721 140.352 18.1401 141.488 18.1401Z" fill="#0072CE"/>
</svg>
